<?xml version="1.0" encoding="UTF-8"?> <svg xmlns="http://www.w3.org/2000/svg" xmlns:xlink="http://www.w3.org/1999/xlink" id="Group_839" data-name="Group 839" width="291.092" height="65.197" viewBox="0 0 291.092 65.197"><defs><clipPath id="clip-path"><rect id="Rectangle_503" data-name="Rectangle 503" width="291.092" height="65.197" fill="none"></rect></clipPath></defs><g id="Group_838" data-name="Group 838" clip-path="url(#clip-path)"><path id="Path_22541" data-name="Path 22541" d="M603.644,13.436h-1.315a5.37,5.37,0,0,1,5.364-5.364V9.387a4.054,4.054,0,0,0-4.049,4.049" transform="translate(-337.555 -4.524)" fill="#51cbff"></path><path id="Path_22542" data-name="Path 22542" d="M607.515,22.827h-7.826V20.06a7.3,7.3,0,0,0-2.183-5.228l-.443-.439.015-.017a8.669,8.669,0,1,1,13.049,0l.015.016-.443.439a7.3,7.3,0,0,0-2.183,5.228ZM601,21.512h5.2V20.06a8.6,8.6,0,0,1,2.145-5.708l-.015-.017.443-.439a7.354,7.354,0,1,0-10.341,0l.443.439-.015.017A8.6,8.6,0,0,1,601,20.06Z" transform="translate(-333.41)" fill="#51cbff"></path><path id="Path_22543" data-name="Path 22543" d="M598.812,15.879a9.836,9.836,0,0,0-2.481.32,8.578,8.578,0,0,1-.381,1.493,8.548,8.548,0,1,1,2.862,16.6c-.094,0-.186,0-.279-.007h-23.31c-.1,0-.2.008-.308.008a6.9,6.9,0,0,1-1.247-13.7l.513-.094.026-.521a8.534,8.534,0,0,1,5.2-7.439,8.581,8.581,0,0,1,.613-1.611,9.853,9.853,0,0,0-7.088,8.477,8.221,8.221,0,0,0,1.984,16.2c.117,0,.234,0,.351-.008h23.22c.108,0,.217.007.326.007a9.865,9.865,0,1,0,0-19.73" transform="translate(-317.584 -6.127)" fill="#027efa"></path><rect id="Rectangle_501" data-name="Rectangle 501" width="7.804" height="1.315" transform="translate(266.288 24.835)" fill="#51cbff"></rect><path id="Path_22544" data-name="Path 22544" d="M10.115,105.516a10.274,10.274,0,0,1-5.192-1.3,9.557,9.557,0,0,1-3.6-3.6,11.159,11.159,0,0,1,0-10.536,9.422,9.422,0,0,1,3.6-3.582,10.4,10.4,0,0,1,5.192-1.284,10.265,10.265,0,0,1,4.387.919,7.69,7.69,0,0,1,3.2,2.759l-1.418,1.035A6.522,6.522,0,0,0,13.6,87.661a8.37,8.37,0,0,0-3.487-.728,8.356,8.356,0,0,0-4.2,1.054,7.52,7.52,0,0,0-2.912,2.95,9.82,9.82,0,0,0,0,8.851,7.515,7.515,0,0,0,2.912,2.95,8.351,8.351,0,0,0,4.2,1.054,8.356,8.356,0,0,0,3.487-.728,6.515,6.515,0,0,0,2.681-2.261l1.418,1.035a7.69,7.69,0,0,1-3.2,2.759,10.265,10.265,0,0,1-4.387.919" transform="translate(0 -47.752)" fill="#0a1641"></path><path id="Path_22545" data-name="Path 22545" d="M57.59,105.516a9.99,9.99,0,0,1-5.115-1.3,9.646,9.646,0,0,1-3.563-3.6,11.122,11.122,0,0,1,0-10.517,9.7,9.7,0,0,1,3.563-3.583,9.995,9.995,0,0,1,5.115-1.3,10.1,10.1,0,0,1,5.134,1.3,9.513,9.513,0,0,1,3.563,3.583,11.264,11.264,0,0,1,0,10.517,9.463,9.463,0,0,1-3.563,3.6,10.1,10.1,0,0,1-5.134,1.3m0-1.724a8.172,8.172,0,0,0,4.138-1.054A7.392,7.392,0,0,0,64.6,99.768a9.942,9.942,0,0,0,0-8.831,7.43,7.43,0,0,0-2.874-2.95,8.176,8.176,0,0,0-4.138-1.054,8.07,8.07,0,0,0-4.119,1.054,7.6,7.6,0,0,0-2.873,2.95,9.775,9.775,0,0,0,0,8.831,7.557,7.557,0,0,0,2.873,2.969,8.065,8.065,0,0,0,4.119,1.054" transform="translate(-26.67 -47.752)" fill="#0a1641"></path><path id="Path_22546" data-name="Path 22546" d="M116.369,85.209a9.2,9.2,0,0,1,4.272.939,6.613,6.613,0,0,1,2.836,2.835,9.862,9.862,0,0,1,1.015,4.694v11.686h-1.916V93.83a7.1,7.1,0,0,0-1.705-5.134,6.328,6.328,0,0,0-4.77-1.763,8.234,8.234,0,0,0-4.061.958,6.4,6.4,0,0,0-2.625,2.682,8.835,8.835,0,0,0-.9,4.138v10.652H106.6v-20h1.839v5.555l-.268-.613a7.594,7.594,0,0,1,3.027-3.736,9.344,9.344,0,0,1,5.173-1.36" transform="translate(-59.74 -47.752)" fill="#0a1641"></path><path id="Path_22547" data-name="Path 22547" d="M157.761,79.989h11.954v1.648H157.761Zm9.119,20.154a5.345,5.345,0,0,1-4.042-1.456,5.513,5.513,0,0,1-1.4-3.985V75.621h1.916V94.51a4.181,4.181,0,0,0,.958,2.95,3.571,3.571,0,0,0,2.758,1.034,4.448,4.448,0,0,0,3.1-1.111l.8,1.341a4.721,4.721,0,0,1-1.859,1.073,7.4,7.4,0,0,1-2.241.345" transform="translate(-88.412 -42.379)" fill="#0a1641"></path><path id="Path_22548" data-name="Path 22548" d="M199.947,105.363v-20h1.84v5.479l-.192-.613a7.077,7.077,0,0,1,2.835-3.717,8.924,8.924,0,0,1,4.98-1.3v1.877a1.316,1.316,0,0,1-.23-.019,1.444,1.444,0,0,0-.229-.019,6.649,6.649,0,0,0-5.211,2.088,8.376,8.376,0,0,0-1.877,5.8v10.422Z" transform="translate(-112.053 -47.752)" fill="#0a1641"></path><path id="Path_22549" data-name="Path 22549" d="M238.1,105.516a9.99,9.99,0,0,1-5.115-1.3,9.646,9.646,0,0,1-3.563-3.6,11.121,11.121,0,0,1,0-10.517,9.7,9.7,0,0,1,3.563-3.583,9.995,9.995,0,0,1,5.115-1.3,10.1,10.1,0,0,1,5.134,1.3,9.513,9.513,0,0,1,3.563,3.583,11.264,11.264,0,0,1,0,10.517,9.463,9.463,0,0,1-3.563,3.6,10.1,10.1,0,0,1-5.134,1.3m0-1.724a8.172,8.172,0,0,0,4.138-1.054,7.392,7.392,0,0,0,2.874-2.969,9.943,9.943,0,0,0,0-8.831,7.43,7.43,0,0,0-2.874-2.95,8.176,8.176,0,0,0-4.138-1.054,8.07,8.07,0,0,0-4.119,1.054,7.6,7.6,0,0,0-2.873,2.95,9.775,9.775,0,0,0,0,8.831,7.557,7.557,0,0,0,2.873,2.969,8.065,8.065,0,0,0,4.119,1.054" transform="translate(-127.831 -47.752)" fill="#0a1641"></path><rect id="Rectangle_502" data-name="Rectangle 502" width="1.916" height="28.43" transform="translate(126.209 29.18)" fill="#0a1641"></rect><path id="Path_22550" data-name="Path 22550" d="M309.857,94.812V66.382h1.916v14.9l-.383,3.486.306,3.487v6.552Zm10.038.153a9.38,9.38,0,0,1-4.77-1.226,8.8,8.8,0,0,1-3.372-3.525,12.427,12.427,0,0,1,0-10.843,8.865,8.865,0,0,1,3.372-3.487,9.38,9.38,0,0,1,4.77-1.226,10.032,10.032,0,0,1,5.077,1.284A9.271,9.271,0,0,1,328.5,79.5a11.571,11.571,0,0,1,0,10.594,9.235,9.235,0,0,1-3.525,3.583,10.032,10.032,0,0,1-5.077,1.283m-.115-1.724a8.169,8.169,0,0,0,4.138-1.054,7.525,7.525,0,0,0,2.893-2.969,9.779,9.779,0,0,0,0-8.831,7.566,7.566,0,0,0-2.893-2.95,8.173,8.173,0,0,0-4.138-1.054,8.069,8.069,0,0,0-4.119,1.054,7.6,7.6,0,0,0-2.874,2.95,9.779,9.779,0,0,0,0,8.831,7.558,7.558,0,0,0,2.874,2.969,8.064,8.064,0,0,0,4.119,1.054" transform="translate(-173.649 -37.202)" fill="#0a1641"></path><path id="Path_22551" data-name="Path 22551" d="M368.69,105.363v-20h1.839v5.479l-.192-.613a7.079,7.079,0,0,1,2.835-3.717,8.926,8.926,0,0,1,4.981-1.3v1.877a1.311,1.311,0,0,1-.23-.019,1.444,1.444,0,0,0-.229-.019,6.649,6.649,0,0,0-5.211,2.088,8.374,8.374,0,0,0-1.877,5.8v10.422Z" transform="translate(-206.62 -47.752)" fill="#0a1641"></path><path id="Path_22552" data-name="Path 22552" d="M402.424,70.531a1.513,1.513,0,0,1-1.111-.46,1.47,1.47,0,0,1-.46-1.073,1.57,1.57,0,0,1,1.571-1.571,1.532,1.532,0,0,1,1.13.441,1.484,1.484,0,0,1,.44,1.092,1.549,1.549,0,0,1-.44,1.111,1.5,1.5,0,0,1-1.13.46m-.958,4.866h1.916v20h-1.916Z" transform="translate(-224.644 -37.788)" fill="#0a1641"></path><path id="Path_22553" data-name="Path 22553" d="M429.989,104.635a10.277,10.277,0,0,1-5.077-1.245,9.423,9.423,0,0,1-3.563-3.449,10.3,10.3,0,0,1,0-10.1,9.331,9.331,0,0,1,3.563-3.41,10.41,10.41,0,0,1,5.077-1.226,10.121,10.121,0,0,1,4.885,1.169,8.693,8.693,0,0,1,3.429,3.333,11.252,11.252,0,0,1,0,10.364,8.784,8.784,0,0,1-3.429,3.372,9.985,9.985,0,0,1-4.885,1.188m.536,8.314a15.8,15.8,0,0,1-5.172-.843,10.488,10.488,0,0,1-3.985-2.337l1.034-1.456a10.584,10.584,0,0,0,3.582,2.145,12.972,12.972,0,0,0,4.5.767q4.023,0,5.92-1.877t1.9-5.9V97.891l.383-2.989-.306-2.988V85.362h1.839v17.855q0,5.019-2.433,7.376t-7.261,2.356m-.383-10.038a8.648,8.648,0,0,0,4.253-1.015,7.432,7.432,0,0,0,2.893-2.835,8.766,8.766,0,0,0,0-8.334,7.345,7.345,0,0,0-2.893-2.8,9.458,9.458,0,0,0-8.448,0,7.309,7.309,0,0,0-2.912,2.8,8.766,8.766,0,0,0,0,8.334,7.394,7.394,0,0,0,2.912,2.835,8.6,8.6,0,0,0,4.2,1.015" transform="translate(-235.39 -47.752)" fill="#0a1641"></path><path id="Path_22554" data-name="Path 22554" d="M494.209,74.658a9.205,9.205,0,0,1,4.272.939,6.61,6.61,0,0,1,2.835,2.835,9.856,9.856,0,0,1,1.015,4.694V94.812h-1.916V83.279a7.1,7.1,0,0,0-1.705-5.134,6.328,6.328,0,0,0-4.77-1.763,8.234,8.234,0,0,0-4.061.958,6.4,6.4,0,0,0-2.625,2.682,8.835,8.835,0,0,0-.9,4.138V94.812h-1.916V66.382h1.916V80.367l-.345-.613a7.6,7.6,0,0,1,3.027-3.736,9.344,9.344,0,0,1,5.173-1.36" transform="translate(-271.487 -37.202)" fill="#0a1641"></path><path id="Path_22555" data-name="Path 22555" d="M535.6,79.989h11.955v1.648H535.6Zm9.119,20.154a5.343,5.343,0,0,1-4.042-1.456,5.511,5.511,0,0,1-1.4-3.985V75.621H541.2V94.51a4.183,4.183,0,0,0,.958,2.95,3.571,3.571,0,0,0,2.758,1.034,4.447,4.447,0,0,0,3.1-1.111l.8,1.341a4.721,4.721,0,0,1-1.858,1.073,7.4,7.4,0,0,1-2.242.345" transform="translate(-300.159 -42.379)" fill="#0a1641"></path></g></svg> 